<svg width="20" height="21" viewBox="0 0 20 21" fill="none" xmlns="http://www.w3.org/2000/svg">
<path fill-rule="evenodd" clip-rule="evenodd" d="M5.1061 3.86838C3.74074 4.07552 2.50004 5.22237 2.50004 7.35699C2.50004 8.39462 2.93353 9.53195 3.67287 10.6997C4.40682 11.8589 5.39948 12.9811 6.41508 13.9711C7.42759 14.9582 8.44341 15.7952 9.20775 16.3863C9.52125 16.6288 9.79132 16.829 10 16.9802C10.2088 16.829 10.4788 16.6288 10.7923 16.3863C11.5567 15.7952 12.5725 14.9582 13.585 13.9711C14.6006 12.9811 15.5933 11.8589 16.3272 10.6997C17.0666 9.53195 17.5 8.39462 17.5 7.35699C17.5 5.22237 16.2593 4.07552 14.894 3.86838C13.5075 3.65802 11.7584 4.38783 10.7571 6.56487C10.6211 6.86054 10.3255 7.04999 10 7.04999C9.6746 7.04999 9.37894 6.86054 9.24295 6.56487C8.24164 4.38783 6.49263 3.65802 5.1061 3.86838ZM10 18L10.4651 18.6915C10.1839 18.8806 9.81617 18.8806 9.53497 18.6915L10 18ZM10 4.57076C8.65409 2.72833 6.6848 1.94313 4.8561 2.22057C2.62298 2.55936 0.833374 4.45336 0.833374 7.35699C0.833374 8.8385 1.44155 10.2911 2.26471 11.5913C3.09326 12.8999 4.18393 14.1237 5.25167 15.1645C6.32249 16.2085 7.39 17.0875 8.18817 17.7047C8.58793 18.0139 8.9218 18.2587 9.15694 18.427C9.27455 18.5111 9.36758 18.5763 9.43192 18.6208C9.4641 18.6431 9.48911 18.6603 9.50645 18.6721L9.52665 18.6859L9.53232 18.6897L9.53497 18.6915C9.53497 18.6915 9.53497 18.6915 10 18C10.4651 18.6915 10.4651 18.6915 10.4651 18.6915L10.4678 18.6897L10.4734 18.6859L10.4936 18.6721C10.511 18.6603 10.536 18.6431 10.5682 18.6208C10.6325 18.5763 10.7255 18.5111 10.8431 18.427C11.0783 18.2587 11.4122 18.0139 11.8119 17.7047C12.6101 17.0875 13.6776 16.2085 14.7484 15.1645C15.8162 14.1237 16.9068 12.8999 17.7354 11.5913C18.5585 10.2911 19.1667 8.8385 19.1667 7.35699C19.1667 4.45336 17.3771 2.55936 15.144 2.22057C13.3153 1.94313 11.346 2.72833 10 4.57076Z" fill="#111113"/>
</svg>
