<svg width="20" height="21" viewBox="0 0 20 21" fill="none" xmlns="http://www.w3.org/2000/svg">
<path fill-rule="evenodd" clip-rule="evenodd" d="M9.16675 3.83332C5.94509 3.83332 3.33341 6.445 3.33341 9.66666C3.33341 12.8883 5.94509 15.5 9.16675 15.5C12.3884 15.5 15.0001 12.8883 15.0001 9.66666C15.0001 6.445 12.3884 3.83332 9.16675 3.83332ZM1.66675 9.66666C1.66675 5.52452 5.02461 2.16666 9.16675 2.16666C13.3089 2.16666 16.6667 5.52452 16.6667 9.66666C16.6667 13.8088 13.3089 17.1667 9.16675 17.1667C5.02461 17.1667 1.66675 13.8088 1.66675 9.66666Z" fill="#111113"/>
<path fill-rule="evenodd" clip-rule="evenodd" d="M13.2857 13.7857C13.6111 13.4603 14.1388 13.4603 14.4642 13.7857L18.0892 17.4107C18.4147 17.7362 18.4147 18.2638 18.0892 18.5892C17.7638 18.9147 17.2361 18.9147 16.9107 18.5892L13.2857 14.9642C12.9603 14.6388 12.9603 14.1112 13.2857 13.7857Z" fill="#111113"/>
</svg>
