<svg width="20" height="21" viewBox="0 0 20 21" fill="none" xmlns="http://www.w3.org/2000/svg">
<g clip-path="url(#clip0_59_1198)">
<path fill-rule="evenodd" clip-rule="evenodd" d="M5.83337 18C5.83337 17.0795 6.57957 16.3333 7.50004 16.3333C8.42052 16.3333 9.16671 17.0795 9.16671 18C9.16671 18.9205 8.42052 19.6667 7.50004 19.6667C6.57957 19.6667 5.83337 18.9205 5.83337 18Z" fill="#111113"/>
<path fill-rule="evenodd" clip-rule="evenodd" d="M15 18C15 17.0795 15.7462 16.3333 16.6667 16.3333C17.5871 16.3333 18.3333 17.0795 18.3333 18C18.3333 18.9205 17.5871 19.6667 16.6667 19.6667C15.7462 19.6667 15 18.9205 15 18Z" fill="#111113"/>
<path fill-rule="evenodd" clip-rule="evenodd" d="M0 1.33333C0 0.873096 0.373096 0.5 0.833333 0.5H4.16667C4.56386 0.5 4.90584 0.780321 4.98379 1.16979L5.68369 4.66667H19.1667C19.415 4.66667 19.6504 4.77744 19.8087 4.9688C19.9671 5.16015 20.0318 5.41215 19.9852 5.65611L18.6507 12.654C18.5364 13.2295 18.2233 13.7465 17.7663 14.1144C17.3115 14.4805 16.743 14.6758 16.1595 14.6667H8.07387C7.49031 14.6758 6.92184 14.4805 6.46707 14.1144C6.01021 13.7466 5.6972 13.2299 5.58277 12.6547C5.58273 12.6545 5.58282 12.655 5.58277 12.6547L4.19066 5.69934C4.18501 5.67633 4.18032 5.65294 4.17663 5.62923L3.4836 2.16667H0.833333C0.373096 2.16667 0 1.79357 0 1.33333ZM6.01727 6.33333L7.21737 12.3293C7.25547 12.5212 7.35983 12.6935 7.51218 12.8161C7.66453 12.9388 7.85516 13.0039 8.0507 13.0002L8.06667 13H16.1667L16.1826 13.0002C16.3782 13.0039 16.5688 12.9388 16.7212 12.8161C16.8728 12.694 16.9769 12.5228 17.0154 12.332L18.1594 6.33333H6.01727Z" fill="#111113"/>
</g>
<defs>
<clipPath id="clip0_59_1198">
<rect width="20" height="20" fill="white" transform="translate(0 0.5)"/>
</clipPath>
</defs>
</svg>
